<?xml version="1.0" standalone="no"?>
<!DOCTYPE svg PUBLIC "-//W3C//DTD SVG 20010904//EN"
 "http://www.w3.org/TR/2001/REC-SVG-20010904/DTD/svg10.dtd">
<svg version="1.0" xmlns="http://www.w3.org/2000/svg"
 width="16000.000000pt" height="9000.000000pt" viewBox="0 0 16000.000000 9000.000000"
 preserveAspectRatio="xMidYMid meet">

<g transform="translate(0.000000,9000.000000) scale(0.100000,-0.100000)"
fill="#000000" stroke="none">
<path d="M11230 89589 c-3014 -44 -6250 -313 -9620 -800 -540 -78 -1522 -229
-1588 -244 l-22 -5 0 -44270 0 -44270 80000 0 80000 0 0 43411 0 43411 -32
-20 c-130 -78 -683 -387 -1108 -619 -1067 -583 -2345 -1230 -3515 -1780 -4367
-2055 -8964 -3673 -13434 -4728 -5341 -1261 -10471 -1717 -15216 -1355 -3632
278 -7036 1028 -10206 2250 -531 205 -849 337 -1554 645 -2422 1058 -4429
1815 -6990 2635 -66 21 -295 92 -510 158 -6120 1880 -12476 2914 -19260 3132
-926 29 -1320 35 -2660 35 -1336 0 -1753 -6 -2690 -35 -6972 -219 -14192
-1217 -22825 -3157 -716 -160 -1023 -239 -2235 -573 -2198 -606 -3353 -875
-4770 -1109 -2146 -355 -4354 -486 -6560 -391 -4808 209 -9996 1407 -15795
3647 -1041 402 -1929 769 -3380 1395 -804 348 -1674 669 -2580 954 -3798 1195
-8305 1759 -13450 1683z"/>
</g>
</svg>
